<?xml version="1.0" encoding="utf-8"?>
<svg version="1.1" id="Ebene_1" xmlns="http://www.w3.org/2000/svg" xmlns:xlink="http://www.w3.org/1999/xlink" x="0px" y="0px"
	 width="54px" height="54px" viewBox="0 0 54 54" style="enable-background:new 0 0 54 54;" xml:space="preserve">
<g id="XMLID_2_">
	<path id="XMLID_5_" class="st0" d="M31.08,34.96c0,2.2-1.83,3.98-4.08,3.98c-2.25,0-4.08-1.78-4.08-3.98c0-2.2,1.83-3.98,4.08-3.98
		C29.26,30.98,31.08,32.76,31.08,34.96z"/>
	<path id="XMLID_4_" class="st0" d="M44.36,29.99c0-4.4-3.66-7.96-8.17-7.96H17.81c-4.51,0-8.17,3.57-8.17,7.96v11.95
		c0,4.4,3.66,7.96,8.17,7.96h18.38c4.51,0,8.17-3.57,8.17-7.96V29.99z"/>
	<path id="XMLID_3_" class="st0" d="M15.77,15.05C15.77,9.01,20.8,4.1,27,4.1c6.2,0,11.23,4.9,11.23,10.95v6.97H15.77V15.05z"/>
</g>
</svg>
