<?xml version="1.0" encoding="utf-8"?>
<svg width="50px" height="50px" viewBox="0 0 50 50">
<path d="M8.96,16.6c-1.51,0-2.74,1.22-2.74,2.72l0,11.41c0,1.51,1.23,2.73,2.74,2.73
	c1.51,0,2.74-1.22,2.74-2.73l0-11.41C11.7,17.82,10.47,16.6,8.96,16.6"/>
<path d="M31.03,6.36l1.91-3.47c0.1-0.18,0.04-0.41-0.15-0.51c-0.19-0.1-0.42-0.03-0.52,0.15l-1.93,3.51
	c-1.62-0.72-3.44-1.12-5.36-1.12c-1.92,0-3.73,0.4-5.35,1.12l-1.93-3.5c-0.1-0.18-0.33-0.25-0.51-0.15
	c-0.19,0.1-0.25,0.33-0.15,0.51l1.91,3.47c-3.75,1.93-6.29,5.6-6.29,9.81l24.65,0C37.31,11.95,34.78,8.29,31.03,6.36 M19.38,11.72
	c-0.57,0-1.03-0.46-1.03-1.03c0-0.57,0.46-1.03,1.03-1.03c0.57,0,1.03,0.46,1.03,1.03C20.41,11.26,19.95,11.72,19.38,11.72
	 M30.6,11.72c-0.57,0-1.03-0.46-1.03-1.03c0-0.56,0.46-1.03,1.03-1.03c0.57,0,1.03,0.47,1.03,1.03
	C31.63,11.26,31.17,11.72,30.6,11.72"/>
<path d="M12.77,34.8c0,1.61,1.3,2.91,2.92,2.91l1.99,0l0,6.04c0,1.5,1.23,2.72,2.73,2.72
	c1.51,0,2.74-1.22,2.74-2.73l0-6.04l3.69,0l0,6.04c0,1.5,1.23,2.73,2.74,2.72c1.51,0,2.74-1.22,2.74-2.73l0-6.03l2,0
	c1.61,0,2.92-1.3,2.92-2.91l0-17.68l-24.46,0L12.77,34.8z"/>
<path d="M41.01,16.6c-1.51,0-2.74,1.22-2.74,2.73l0,11.41c0,1.51,1.22,2.73,2.74,2.72
	c1.51,0,2.73-1.22,2.74-2.73l0-11.41C43.75,17.82,42.53,16.6,41.01,16.6"/>
</svg>
