<?xml version="1.0" encoding="utf-8"?>
<svg width="50px" height="50px" viewBox="0 0 50 50">
	<polygon points="28.92,17.1 25.18,17.1 19.77,31.1 23.16,31.1 24.04,28.73 29.15,28.73 28.22,26.1 24.86,26.1
		27.05,20.08 30.94,31.1 34.32,31.1 "/>
	<path d="M40.49,35.35c-0.26,0-0.49,0.13-0.63,0.33c0,0-0.67,0.77-1.04,1.13c-1.54,1.53-3.33,2.74-5.32,3.58
		c-2.06,0.87-4.25,1.31-6.51,1.31c-2.26,0-4.45-0.44-6.51-1.31c-1.99-0.84-3.78-2.05-5.32-3.58c-1.54-1.53-2.74-3.32-3.58-5.31
		c-0.87-2.06-1.31-4.24-1.31-6.5c0-2.25,0.44-4.44,1.31-6.5c0.84-1.99,2.05-3.77,3.58-5.31c1.54-1.53,3.33-2.74,5.32-3.58
		C22.55,8.74,24.74,8.3,27,8.3c2.26,0,4.45,0.44,6.51,1.31c1.45,0.61,2.79,1.42,4.01,2.4c-0.06,0.19-0.1,0.4-0.1,0.61
		c0,1.04,0.84,1.88,1.89,1.88c1.04,0,1.89-0.84,1.89-1.88c0-1.04-0.84-1.88-1.89-1.88c-0.26,0-0.51,0.05-0.73,0.15
		C35.43,8.31,31.4,6.76,27,6.76C16.91,6.76,8.73,14.93,8.73,25S16.91,43.24,27,43.24c5.64,0,10.69-2.56,14.04-6.57
		c0.14-0.14,0.23-0.33,0.23-0.54C41.27,35.7,40.92,35.35,40.49,35.35"/>
</svg>
