<?xml version="1.0" encoding="utf-8"?>
<svg width="50px" height="50px" viewBox="0 0 50 50">
<polygon points="27.61,15.42 23.02,15.42 16.39,32.4 20.54,32.4 21.62,29.52 27.88,29.52 26.75,26.34
	22.63,26.34 25.31,19.03 30.08,32.4 34.23,32.4 "/>
<path d="M41.8,37.55c-0.32,0-0.6,0.16-0.77,0.39c0,0-0.83,0.93-1.27,1.37c-1.88,1.86-4.08,3.32-6.52,4.34
	c-2.53,1.06-5.21,1.59-7.98,1.59c-2.77,0-5.46-0.54-7.98-1.59c-2.44-1.02-4.64-2.48-6.52-4.34c-1.88-1.86-3.36-4.03-4.4-6.44
	c-1.07-2.5-1.61-5.15-1.61-7.88c0-2.73,0.54-5.39,1.61-7.88c1.03-2.41,2.51-4.58,4.4-6.44c1.88-1.86,4.08-3.32,6.52-4.34
	c2.53-1.06,5.21-1.59,7.98-1.59c2.77,0,5.45,0.54,7.98,1.59c1.78,0.74,3.42,1.72,4.92,2.92c-0.08,0.23-0.12,0.48-0.12,0.74
	c0,1.26,1.04,2.28,2.31,2.28c1.28,0,2.31-1.02,2.31-2.28c0-1.26-1.04-2.28-2.31-2.28c-0.32,0-0.62,0.06-0.9,0.18
	c-3.86-3.13-8.81-5.01-14.19-5.01c-12.37,0-22.4,9.9-22.4,22.12c0,12.22,10.03,22.12,22.4,22.12c6.92,0,13.11-3.1,17.22-7.97
	c0.17-0.17,0.28-0.4,0.28-0.66C42.75,37.97,42.32,37.55,41.8,37.55"/>
</svg>
