<svg width="21px" height="21px" viewBox="0 0 21 21">
<path d="M10.5,20.83c-5.7,0-10.33-4.64-10.33-10.33S4.8,0.17,10.5,0.17S20.83,4.8,20.83,10.5
	S16.2,20.83,10.5,20.83z M10.5,1.67c-4.87,0-8.83,3.96-8.83,8.83s3.96,8.83,8.83,8.83s8.83-3.96,8.83-8.83S15.37,1.67,10.5,1.67z"/>
<path d="M15.08,15.83c-0.18,0-0.36-0.06-0.51-0.2l-5-4.58c-0.15-0.14-0.24-0.34-0.24-0.55V5.92
	c0-0.41,0.34-0.75,0.75-0.75s0.75,0.34,0.75,0.75v4.25l4.76,4.36c0.31,0.28,0.33,0.75,0.05,1.06
	C15.49,15.75,15.29,15.83,15.08,15.83z"/>
</svg>
