<?xml version="1.0" encoding="utf-8"?>
<!-- Generator: Adobe Illustrator 19.0.0, SVG Export Plug-In . SVG Version: 6.00 Build 0)  -->
<svg version="1.1" id="Ebene_1" xmlns="http://www.w3.org/2000/svg" xmlns:xlink="http://www.w3.org/1999/xlink" x="0px" y="0px"
	 width="25px" height="25px" viewBox="0 0 25 25" style="enable-background:new 0 0 25 25;" xml:space="preserve">
<style type="text/css">
	.st0{fill:#31B1B4;}
	.st1{fill-rule:evenodd;clip-rule:evenodd;fill:#31B1B4;}
</style>
<path id="XMLID_4_" class="st0" d="M11.9,10c-0.28,0-0.5-0.22-0.5-0.5V8.25c0-0.28,0.22-0.5,0.5-0.5c1.36,0,2.47-1.11,2.47-2.48
	c0-1.37-1.11-2.48-2.47-2.48c-1.34,0-2.47,1.18-2.47,2.57c0,0.28-0.22,0.5-0.5,0.5s-0.5-0.22-0.5-0.5c0-1.97,1.56-3.57,3.47-3.57
	c1.91,0,3.47,1.56,3.47,3.48c0,1.75-1.29,3.2-2.97,3.44V9.5C12.4,9.78,12.17,10,11.9,10z"/>
<path id="XMLID_11_" class="st1" d="M12.61,12.33c0,0.4-0.32,0.72-0.71,0.72c-0.39,0-0.71-0.32-0.71-0.72s0.32-0.72,0.71-0.72
	C12.29,11.6,12.61,11.93,12.61,12.33"/>
<path id="XMLID_3_" class="st0" d="M17.82,10.01c-0.28,0-0.5-0.22-0.5-0.5V2.3c0-0.28,0.22-0.5,0.5-0.5s0.5,0.22,0.5,0.5v7.21
	C18.32,9.78,18.1,10.01,17.82,10.01z"/>
<path id="XMLID_5_" class="st1" d="M18.53,12.33c0,0.4-0.32,0.72-0.71,0.72c-0.39,0-0.71-0.32-0.71-0.72s0.32-0.72,0.71-0.72
	C18.21,11.6,18.53,11.93,18.53,12.33"/>
<path id="XMLID_2_" class="st0" d="M6.99,22c-0.06,0-0.13-0.01-0.19-0.04c-0.19-0.08-0.31-0.26-0.31-0.46v-2.79H5.33
	C4.6,18.71,4,18.11,4,17.38v-7.26c0-0.28,0.22-0.5,0.5-0.5S5,9.84,5,10.12v7.26c0,0.18,0.15,0.32,0.33,0.32h1.66
	c0.28,0,0.5,0.22,0.5,0.5v2.09l2.47-2.45c0.09-0.09,0.22-0.15,0.35-0.15h9.3c0.28,0,0.5,0.22,0.5,0.5s-0.22,0.5-0.5,0.5h-9.09
	l-3.17,3.15C7.25,21.95,7.12,22,6.99,22z"/>
</svg>
