<?xml version="1.0" encoding="utf-8"?>
<svg width="25px" height="25px" viewBox="0 0 25 25">
<path d="M7.83,18.87c-0.06,0-0.13-0.01-0.19-0.04c-0.19-0.08-0.31-0.26-0.31-0.46v-2.14h-1.5
	c-0.28,0-0.5-0.22-0.5-0.5V7.83c0-0.28,0.22-0.5,0.5-0.5H18.5c0.28,0,0.5,0.22,0.5,0.5v4.28c0,0.28-0.22,0.5-0.5,0.5
	s-0.5-0.22-0.5-0.5V8.33H6.33v6.91h1.5c0.28,0,0.5,0.22,0.5,0.5v1.44l1.81-1.79c0.09-0.09,0.22-0.14,0.35-0.14h0.67
	c0.28,0,0.5,0.22,0.5,0.5c0,0.28-0.22,0.5-0.5,0.5h-0.46l-2.52,2.49C8.09,18.82,7.96,18.87,7.83,18.87z"/>
<path d="M19.83,22.17c-0.12,0-0.24-0.04-0.33-0.12l-2.86-2.51h-3.48c-0.28,0-0.5-0.22-0.5-0.5v-5.27c0-0.28,0.22-0.5,0.5-0.5h8
	c0.28,0,0.5,0.22,0.5,0.5v5.27c0,0.28-0.22,0.5-0.5,0.5h-0.83v2.14c0,0.2-0.12,0.38-0.29,0.46C19.97,22.16,19.9,22.17,19.83,22.17z
	 M13.67,18.53h3.17c0.12,0,0.24,0.04,0.33,0.12l2.17,1.91v-1.53c0-0.28,0.22-0.5,0.5-0.5h0.83v-4.27h-7V18.53z"/>
<path d="M12.25,10.5h-4.5c-0.28,0-0.5-0.22-0.5-0.5s0.22-0.5,0.5-0.5h4.5c0.28,0,0.5,0.22,0.5,0.5
	S12.53,10.5,12.25,10.5z"/>
<path d="M14.25,12h-6.5c-0.28,0-0.5-0.22-0.5-0.5S7.47,11,7.75,11h6.5c0.28,0,0.5,0.22,0.5,0.5S14.53,12,14.25,12z"/>
<path d="M9.75,13.5h-2c-0.28,0-0.5-0.22-0.5-0.5s0.22-0.5,0.5-0.5h2c0.28,0,0.5,0.22,0.5,0.5S10.03,13.5,9.75,13.5z"
	/>
</svg>
