<?xml version="1.0" encoding="utf-8"?>
<svg width="25px" height="25px" viewBox="0 0 25 25">
<path d="M9.12,20.38h2.1c0.28,0,0.5-0.22,0.5-0.5s-0.22-0.5-0.5-0.5h-2.1c-0.28,0-0.5,0.22-0.5,0.5
	S8.84,20.38,9.12,20.38z"/>
<path d="M10.17,18.29c0.28,0,0.5-0.22,0.5-0.5V8.36c0-0.28-0.22-0.5-0.5-0.5s-0.5,0.22-0.5,0.5v9.43
	C9.67,18.06,9.89,18.29,10.17,18.29z"/>
<path d="M21.03,21.07L15.79,0.78c-0.07-0.27-0.34-0.43-0.61-0.36L12.14,1.2
	c-0.13,0.03-0.24,0.12-0.31,0.23s-0.09,0.25-0.05,0.38l1.02,3.95H7.02c-0.28,0-0.5,0.22-0.5,0.5v15.71c0,0.28,0.22,0.5,0.5,0.5h6.29
	c0.28,0,0.5-0.22,0.5-0.5V9.68l3.21,12.42c0.03,0.13,0.12,0.24,0.23,0.31c0.08,0.05,0.17,0.07,0.25,0.07c0.04,0,0.08,0,0.12-0.02
	l3.04-0.79C20.94,21.61,21.1,21.33,21.03,21.07z M12.81,21.48H7.52V6.76h5.29V21.48z M17.86,21.37L12.87,2.05l2.07-0.54l4.99,19.32
	L17.86,21.37z"/>
</svg>
