<?xml version="1.0" encoding="utf-8"?>
<!-- Generator: Adobe Illustrator 19.0.0, SVG Export Plug-In . SVG Version: 6.00 Build 0)  -->
<svg version="1.1" id="Ebene_1" xmlns="http://www.w3.org/2000/svg" xmlns:xlink="http://www.w3.org/1999/xlink" x="0px" y="0px"
	 width="25px" height="25px" viewBox="0 0 25 25" style="enable-background:new 0 0 25 25;" xml:space="preserve">
<style type="text/css">
	.st0{fill:#2A7ED3;}
</style>
<path id="XMLID_8_" class="st0" d="M21.22,4.66c-0.11-0.12-0.28-0.18-0.44-0.16c-0.13,0.02-3.34,0.48-6.34,1.8
	c-0.15,0.06-0.25,0.2-0.29,0.35c-0.01,0.03-0.57,2.51-1.78,3.07v-1.7c0-0.14-0.06-0.28-0.17-0.37c-0.11-0.1-0.25-0.14-0.39-0.12
	c-0.92,0.11-3.46,2.45-4.33,4.99c-0.58,1.69-0.34,3.22,0.69,4.44L4.65,20.5c-0.2,0.2-0.2,0.51,0,0.71c0.1,0.1,0.23,0.15,0.35,0.15
	s0.26-0.05,0.35-0.15l3.54-3.54c0.49,0.33,1.09,0.5,1.76,0.5c0.36,0,0.74-0.05,1.14-0.15c1.46-0.36,3.07-1.38,4.65-2.96
	c3.37-3.37,4.83-9.67,4.89-9.94C21.37,4.95,21.33,4.78,21.22,4.66z M15.74,14.34c-1.83,1.83-3.29,2.48-4.18,2.7
	c-0.76,0.18-1.43,0.15-1.93-0.11l4.84-4.84c0.2-0.2,0.2-0.51,0-0.71s-0.51-0.2-0.71,0l-4.89,4.89c-0.7-0.88-0.88-1.93-0.53-3.14
	c0.54-1.88,2.13-3.54,3.03-4.25v1.47c0,0.28,0.22,0.5,0.5,0.5c2.05,0,2.96-2.84,3.19-3.72c1.97-0.83,4.03-1.29,5.1-1.5
	C19.68,7.38,18.25,11.83,15.74,14.34z"/>
</svg>
