<?xml version="1.0" encoding="utf-8"?>
<!-- Generator: Adobe Illustrator 19.0.0, SVG Export Plug-In . SVG Version: 6.00 Build 0)  -->
<svg version="1.1" id="Ebene_1" xmlns="http://www.w3.org/2000/svg" xmlns:xlink="http://www.w3.org/1999/xlink" x="0px" y="0px"
	 width="25px" height="25px" viewBox="0 0 25 25" style="enable-background:new 0 0 25 25;" xml:space="preserve">
<style type="text/css">
	.st0{fill:#F18F01;}
</style>
<path id="XMLID_4_" class="st0" d="M17.63,18.16H6.88c-0.28,0-0.5-0.22-0.5-0.5V6.91c0-0.28,0.22-0.5,0.5-0.5h10.75
	c0.28,0,0.5,0.22,0.5,0.5v10.75C18.13,17.94,17.9,18.16,17.63,18.16z M7.38,17.16h9.75V7.41H7.38V17.16z"/>
<path id="XMLID_3_" class="st0" d="M20.76,20.04H4.24c-0.28,0-0.5-0.22-0.5-0.5s0.22-0.5,0.5-0.5h16.52c0.28,0,0.5,0.22,0.5,0.5
	S21.03,20.04,20.76,20.04z"/>
<path id="XMLID_2_" class="st0" d="M9.03,12.79c-0.28,0-0.5-0.22-0.5-0.5V9.06c0-0.28,0.22-0.5,0.5-0.5h3.23
	c0.28,0,0.5,0.22,0.5,0.5s-0.22,0.5-0.5,0.5H9.53v2.73C9.53,12.56,9.3,12.79,9.03,12.79z"/>
</svg>
