<?xml version="1.0" encoding="utf-8"?>
<svg width="50px" height="50px" viewBox="0 0 50 50">
	<path d="M43.84,12.31h-6.17V6.18c0-2.86-2.32-5.17-5.18-5.17H6.16C3.31,1.02,1,3.33,1,6.18v26.34
		c0,2.85,2.31,5.16,5.16,5.17h6.17v6.13c0,2.86,2.32,5.17,5.18,5.17h26.34c2.85-0.01,5.15-2.33,5.16-5.17V17.49
		C49,14.63,46.7,12.32,43.84,12.31z M6.17,34.33c-1,0-1.81-0.81-1.81-1.81V6.18c0-0.99,0.8-1.8,1.8-1.81h26.34
		c1,0,1.81,0.81,1.81,1.81v6.13h-16.8c-2.86,0-5.18,2.32-5.18,5.18v16.85H6.17z M34.31,15.67v16.85c0,1-0.81,1.81-1.81,1.81h-16.8
		V17.49c0-1,0.81-1.82,1.82-1.82v0H34.31z M45.64,43.82c0,0.99-0.8,1.8-1.8,1.81H17.5c-1,0-1.81-0.81-1.81-1.81v-6.13h16.8
		c2.86,0,5.18-2.32,5.18-5.17V15.67h6.15c1,0,1.81,0.81,1.81,1.81V43.82z"/>
</svg>
