<?xml version="1.0" encoding="utf-8"?>
<svg width="50px" height="50px" viewBox="0 0 50 50">
	<path d="M41,14.9c-2.85,0-5.34,1.52-6.76,3.8c-0.06-0.03-0.1-0.08-0.16-0.1l-17.02-6.45
		c-0.06-0.02-0.13-0.02-0.2-0.03C16.94,11.7,17,11.28,17,10.85c0-4.46-3.58-8.08-8-8.08c-4.42,0-8,3.62-8,8.08
		c0,4.47,3.58,8.09,8,8.09c2.85,0,5.34-1.52,6.75-3.79c0.05,0.03,0.09,0.07,0.14,0.09l17.02,6.45c0.07,0.03,0.14,0.02,0.21,0.04
		C33.06,22.13,33,22.55,33,22.98c0,0.73,0.12,1.42,0.3,2.09c-0.07,0.02-0.13,0.02-0.2,0.05l-17.7,8.95
		c-0.06,0.03-0.09,0.08-0.14,0.11c-1.46-1.88-3.71-3.11-6.26-3.11c-4.42,0-8,3.62-8,8.09c0,4.46,3.58,8.08,8,8.08
		c4.42,0,8-3.62,8-8.08c0-0.73-0.13-1.42-0.3-2.09c0.07-0.02,0.13-0.02,0.2-0.05l17.7-8.95c0.06-0.03,0.09-0.08,0.14-0.11
		c1.46,1.88,3.71,3.11,6.26,3.11c4.42,0,8-3.62,8-8.09C49,18.51,45.42,14.9,41,14.9z"/>
</svg>
