<?xml version="1.0" encoding="utf-8"?>
<!-- Generator: Adobe Illustrator 19.0.0, SVG Export Plug-In . SVG Version: 6.00 Build 0)  -->
<svg version="1.1" id="Ebene_1" xmlns="http://www.w3.org/2000/svg" xmlns:xlink="http://www.w3.org/1999/xlink" x="0px" y="0px"
	 viewBox="0 0 15 12" style="enable-background:new 0 0 15 12;" xml:space="preserve">
<path id="XMLID_87_" d="M13.98,0.4c-0.41,0-0.75,0.34-0.75,0.75V6.2H2.83l2.62-2.62c0.29-0.29,0.29-0.77,0-1.06s-0.77-0.29-1.06,0
	l-3.9,3.9c-0.29,0.29-0.29,0.77,0,1.06l3.9,3.9c0.15,0.15,0.34,0.22,0.53,0.22s0.38-0.07,0.53-0.22c0.29-0.29,0.29-0.77,0-1.06
	L2.83,7.7h11.15c0.41,0,0.75-0.34,0.75-0.75v-5.8C14.73,0.74,14.4,0.4,13.98,0.4z"/>
</svg>
