<?xml version="1.0" encoding="utf-8"?>
<svg width="24px" height="10px" viewBox="0 0 24 10">
<path class="light" d="M15.06,0.5h-4.47C10.84,0.94,11,1.45,11,2v0h4.05l0,6L11,8v0c0,0.55-0.16,1.05-0.42,1.5h4.47
	c0.82,0,1.5-0.67,1.5-1.5V2C16.55,1.18,15.88,0.5,15.06,0.5"/>
<path class="light" d="M22,0.5h-4.36c0.26,0.44,0.42,0.95,0.42,1.5v0H22l0,6l-3.95,0v0c0,0.55-0.16,1.05-0.42,1.5H22
	c0.82,0,1.5-0.67,1.5-1.5V2C23.5,1.18,22.83,0.5,22,0.5"/>
<path class="dark" d="M0.5,2c0-0.83,0.67-1.5,1.5-1.5H8c0.82,0,1.5,0.68,1.5,1.5V8c0,0.82-0.68,1.5-1.5,1.5H2
	C1.17,9.5,0.5,8.82,0.5,8V2z"/>
</svg>
