<svg version="1.1" id="Layer_1" xmlns="http://www.w3.org/2000/svg" xmlns:xlink="http://www.w3.org/1999/xlink" x="0px" y="0px"
	 viewBox="0 0 9.32 8.58" style="enable-background:new 0 0 9.32 8.58;" xml:space="preserve">
<path d="M9.32,0.83c0,0.46-0.21,0.9-0.62,1.34L8.64,2.23L5.02,6.05C4.25,6.86,3.59,7.48,3.05,7.92S2.13,8.58,1.9,8.58
	c-0.23,0-0.53-0.11-0.87-0.33S0.46,7.8,0.36,7.57c-0.09-0.2-0.17-0.61-0.24-1.24S0,5.01,0,4.27c0-0.4,0.17-0.77,0.5-1.12
	s0.71-0.51,1.11-0.51C2,2.64,2.23,3,2.31,3.7c0.01,0.08,0.01,0.14,0.02,0.18c0.06,0.54,0.13,0.92,0.22,1.14s0.19,0.32,0.33,0.32
	c0.06,0,0.17-0.06,0.33-0.19s0.35-0.3,0.57-0.52L7.5,0.95C7.81,0.64,8.09,0.4,8.34,0.24S8.79,0,8.96,0c0.13,0,0.22,0.05,0.28,0.15
	s0.08,0.26,0.08,0.49V0.83z"/>
</svg>
