<?xml version="1.0" encoding="utf-8"?>
<!-- Generator: Adobe Illustrator 19.0.0, SVG Export Plug-In . SVG Version: 6.00 Build 0)  -->
<svg version="1.1" id="Ebene_1" xmlns="http://www.w3.org/2000/svg" xmlns:xlink="http://www.w3.org/1999/xlink" x="0px" y="0px"
	 viewBox="0 0 15 17" style="enable-background:new 0 0 15 17;" xml:space="preserve">
<path id="XMLID_65_" d="M14.54,4.5c-0.03-0.06-0.06-0.12-0.11-0.16l-4.15-4.15c-0.05-0.05-0.1-0.08-0.16-0.11
	c-0.06-0.03-0.13-0.04-0.19-0.04h-9c-0.28,0-0.5,0.22-0.5,0.5v15.93c0,0.28,0.22,0.5,0.5,0.5h13.16c0.28,0,0.5-0.22,0.5-0.5V4.69
	C14.58,4.62,14.57,4.56,14.54,4.5z M10.42,1.74l2.45,2.45h-2.45V1.74z M1.42,15.97V1.03h8v3.66c0,0.28,0.22,0.5,0.5,0.5h3.66v10.77
	H1.42z"/>
</svg>
