<?xml version="1.0" encoding="utf-8"?>
<!-- Generator: Adobe Illustrator 19.0.0, SVG Export Plug-In . SVG Version: 6.00 Build 0)  -->
<svg version="1.1" id="Ebene_1" xmlns="http://www.w3.org/2000/svg" xmlns:xlink="http://www.w3.org/1999/xlink" x="0px" y="0px"
	 viewBox="0 0 15 17" style="enable-background:new 0 0 15 17;" xml:space="preserve">
<path id="XMLID_62_" d="M5.04,13.98c-0.65,0-1.02-0.26-1.22-0.48c-0.45-0.48-0.41-1.12-0.41-1.19c0.02-0.28,0.26-0.49,0.54-0.46
	c0.27,0.02,0.48,0.26,0.46,0.53c0,0.08,0.02,0.31,0.15,0.45c0.19,0.2,0.78,0.2,0.97,0c0.13-0.13,0.15-0.35,0.15-0.42l0-3.54
	c0-0.28,0.22-0.5,0.5-0.5s0.5,0.22,0.5,0.5v3.52c0,0.04,0.03,0.66-0.41,1.12C6.05,13.72,5.68,13.98,5.04,13.98z"/>
<path id="XMLID_61_" d="M9.61,14c-0.86,0-1.58-0.7-1.63-1.6c-0.02-0.28,0.19-0.51,0.47-0.53c0.27-0.02,0.51,0.19,0.53,0.47
	C9,12.71,9.27,13,9.61,13c0.35,0,0.63-0.32,0.63-0.71c0-0.38-0.2-0.58-0.7-0.71c0,0-0.1-0.03-0.11-0.03
	c-1.2-0.31-1.45-1.08-1.45-1.68c0-0.89,0.67-1.51,1.63-1.51c0.92,0,1.58,0.56,1.63,1.41c0.02,0.28-0.19,0.51-0.47,0.53
	c-0.27,0.01-0.51-0.19-0.53-0.47c-0.02-0.31-0.23-0.47-0.63-0.47c-0.24,0-0.63,0.07-0.63,0.51c0,0.38,0.2,0.58,0.71,0.71l0.1,0.03
	c1.2,0.31,1.46,1.08,1.46,1.68C11.24,13.24,10.51,14,9.61,14z"/>
<path id="XMLID_65_" d="M14.54,4.5c-0.03-0.06-0.06-0.12-0.11-0.16l-4.15-4.15c-0.05-0.05-0.1-0.08-0.16-0.11
	c-0.06-0.03-0.13-0.04-0.19-0.04h-9c-0.28,0-0.5,0.22-0.5,0.5v15.93c0,0.28,0.22,0.5,0.5,0.5h13.16c0.28,0,0.5-0.22,0.5-0.5V4.69
	C14.58,4.62,14.57,4.56,14.54,4.5z M10.42,1.74l2.45,2.45h-2.45V1.74z M1.42,15.97V1.03h8v3.66c0,0.28,0.22,0.5,0.5,0.5h3.66v10.77
	H1.42z"/>
</svg>
