<?xml version="1.0" encoding="utf-8"?>
<!-- Generator: Adobe Illustrator 19.0.0, SVG Export Plug-In . SVG Version: 6.00 Build 0)  -->
<svg version="1.1" id="Ebene_1" xmlns="http://www.w3.org/2000/svg" xmlns:xlink="http://www.w3.org/1999/xlink" x="0px" y="0px"
	 viewBox="0 0 18 15" style="enable-background:new 0 0 18 15;" xml:space="preserve">
<style type="text/css">
	.st0{fill-rule:evenodd;clip-rule:evenodd;}
</style>
<path id="XMLID_3_" class="st0" d="M16.78,5.17H16V2.83c0-0.43-0.35-0.78-0.78-0.78H5.11V1.28c0-0.43-0.35-0.78-0.78-0.78H1.22
	c-0.43,0-0.78,0.35-0.78,0.78v10.89c0,1.29,1.05,2.33,2.33,2.33h11.67c1.71,0,3.11-1.4,3.11-3.11V5.94
	C17.56,5.52,17.21,5.17,16.78,5.17 M3.56,5.94v6.22c0,0.43-0.35,0.78-0.78,0.78C2.35,12.94,2,12.6,2,12.17V2.06h1.56v0.78
	c0,0.43,0.35,0.78,0.78,0.78h10.11v1.56H4.33C3.9,5.17,3.56,5.52,3.56,5.94"/>
</svg>
