<?xml version="1.0" encoding="utf-8"?>
<!-- Generator: Adobe Illustrator 19.0.0, SVG Export Plug-In . SVG Version: 6.00 Build 0)  -->
<svg version="1.1" id="Ebene_1" xmlns="http://www.w3.org/2000/svg" xmlns:xlink="http://www.w3.org/1999/xlink" x="0px" y="0px"
	 viewBox="0 0 16 18" style="enable-background:new 0 0 16 18;" xml:space="preserve">
<style type="text/css">
	.st0{fill-rule:evenodd;clip-rule:evenodd;}
</style>
<path class="st0" d="M14.95,11.23c-0.13-0.08-0.27-0.13-0.41-0.16V6.94c0.14-0.03,0.28-0.09,0.41-0.16
	c0.74-0.43,0.99-1.37,0.57-2.11c-0.43-0.74-1.37-0.99-2.11-0.57c-0.13,0.08-0.25,0.17-0.35,0.28L9.48,2.31
	c0.04-0.14,0.06-0.29,0.06-0.44c0-0.86-0.69-1.55-1.55-1.55c-0.86,0-1.55,0.69-1.55,1.55c0,0.15,0.02,0.3,0.06,0.44L2.95,4.37
	c-0.1-0.11-0.22-0.2-0.35-0.28C1.86,3.67,0.91,3.92,0.48,4.66C0.06,5.4,0.31,6.35,1.05,6.77C1.18,6.85,1.32,6.9,1.46,6.94v4.12
	c-0.14,0.03-0.28,0.09-0.41,0.16c-0.74,0.43-0.99,1.37-0.57,2.11c0.43,0.74,1.37,0.99,2.11,0.57c0.13-0.08,0.25-0.17,0.35-0.27
	l3.57,2.06c-0.04,0.14-0.06,0.29-0.06,0.44c0,0.86,0.69,1.55,1.55,1.55c0.86,0,1.55-0.7,1.55-1.55c0-0.17-0.03-0.33-0.08-0.49
	l3.55-2.05c0.11,0.12,0.24,0.23,0.38,0.31c0.74,0.43,1.69,0.17,2.11-0.57C15.94,12.6,15.69,11.66,14.95,11.23z M2.26,11.08
	c-0.02-0.01-0.04-0.01-0.06-0.02V6.94c0.39-0.1,0.75-0.35,0.97-0.73c0.22-0.38,0.26-0.81,0.15-1.2l3.58-2.07
	C6.9,2.96,6.92,2.97,6.93,2.99L2.26,11.08z M9.14,15.09c-0.28-0.31-0.69-0.5-1.14-0.5c-0.44,0-0.83,0.18-1.11,0.47L3.31,13
	c0.01-0.02,0.01-0.04,0.02-0.06h9.34c0.01,0.03,0.02,0.07,0.03,0.1L9.14,15.09z M12.83,11.79c-0.08,0.13-0.13,0.27-0.16,0.41H3.33
	c-0.03-0.14-0.09-0.28-0.16-0.41C3.09,11.66,3,11.55,2.9,11.45l4.67-8.09C7.71,3.39,7.85,3.41,8,3.41c0.15,0,0.3-0.02,0.43-0.06
	l4.67,8.09C13,11.55,12.91,11.66,12.83,11.79z M13.8,11.06c-0.02,0-0.04,0.01-0.06,0.02L9.07,2.99C9.08,2.97,9.1,2.96,9.11,2.94
	l3.58,2.07c-0.11,0.39-0.07,0.82,0.15,1.2c0.22,0.38,0.57,0.63,0.97,0.73V11.06z"/>
</svg>
