<?xml version="1.0" encoding="utf-8"?>
<svg width="20px" height="20px" viewBox="0 0 20 20">
<path class="light" d="M14.98,5.5C14.99,5.55,15,5.6,15,5.67v1.67c0,0.06-0.01,0.12-0.02,0.17H5.02
	C5.01,7.45,5,7.4,5,7.33V5.67C5,5.6,5.01,5.55,5.02,5.5H14.98 M15.32,4H4.68C4.03,4,3.5,4.75,3.5,5.67v1.67C3.5,8.26,4.03,9,4.68,9
	h10.65c0.65,0,1.18-0.74,1.18-1.67V5.67C16.5,4.74,15.97,4,15.32,4L15.32,4z"/>
<path class="light" d="M14.98,12.5c0.01,0.05,0.02,0.1,0.02,0.17v1.67c0,0.06-0.01,0.12-0.02,0.17H5.02
	C5.01,14.45,5,14.4,5,14.33v-1.67c0-0.06,0.01-0.12,0.02-0.17H14.98 M15.32,11H4.68c-0.65,0-1.18,0.74-1.18,1.67v1.67
	C3.5,15.26,4.03,16,4.68,16h10.65c0.65,0,1.18-0.74,1.18-1.67v-1.67C16.5,11.74,15.97,11,15.32,11L15.32,11z"/>
<path class="dark" d="M4.95,19.25H3c-1.52,0-2.75-1.43-2.75-3.19v-0.56h1.5v0.56c0,0.91,0.57,1.69,1.25,1.69h1.95V19.25z
	 M1.75,13.51h-1.5v-6h1.5V13.51z M1.75,5.51h-1.5V3.94c0-1.76,1.23-3.19,2.75-3.19h0.93v1.5H3c-0.69,0-1.25,0.76-1.25,1.69V5.51z"/>
<path class="dark" d="M17,19.25h-0.83v-1.5H17c0.69,0,1.25-0.76,1.25-1.69v-1.67h1.5v1.67C19.75,17.82,18.52,19.25,17,19.25z
	 M19.75,12.39h-1.5v-6h1.5V12.39z M19.75,4.39h-1.5V3.94c0-0.91-0.57-1.69-1.25-1.69h-2.05v-1.5H17c1.52,0,2.75,1.43,2.75,3.19V4.39
	z"/>
</svg>
