<svg width="19px" height="18px" viewBox="0 0 19 18" version="1.1" xmlns="http://www.w3.org/2000/svg" xmlns:xlink="http://www.w3.org/1999/xlink">
    <path d="M15.8980737,9.52313684 C15.3779684,9.52313684 14.7583895,9.86324211 14.2250211,10.2488211 C13.4917579,10.7784 12.6713368,10.3369263 12.6713368,8.82682105 L12.6713368,5.87766316 C12.6713368,5.55271579 12.4079684,5.28934737 12.0830211,5.28934737 L8.60617895,5.28934737 C7.52712632,5.11882105 7.25049474,4.41492632 7.71186316,3.77450526 C8.09744211,3.24208421 8.43754737,2.62155789 8.43754737,2.1024 C8.43754737,0.873663158 7.49112632,0.000189473684 6.33533684,0.000189473684 C5.18049474,0.000189473684 4.23312632,0.873663158 4.23312632,2.1024 C4.23312632,2.62155789 4.57417895,3.24208421 4.95881053,3.77450526 C5.42112632,4.41492632 5.14354737,5.11882105 4.06544211,5.28934737 L0.5886,5.28934737 C0.263652632,5.28934737 0.000284210526,5.55271579 0.000284210526,5.87766316 L0.000284210526,17.3720842 C0.000284210526,17.6970316 0.263652632,17.9604 0.5886,17.9604 L3.53775789,17.9604 C5.04786316,17.9604 5.48933684,17.1399789 4.95881053,16.4067158 C4.57417895,15.8733474 4.23312632,15.2537684 4.23312632,14.7336632 C4.23312632,13.5049263 5.18049474,12.6314526 6.33533684,12.6314526 C7.49112632,12.6314526 8.43754737,13.5049263 8.43754737,14.7336632 C8.43754737,15.2537684 8.09744211,15.8733474 7.71186316,16.4067158 C7.18228421,17.1399789 7.62375789,17.9604 9.13386316,17.9604 L12.0830211,17.9604 C12.4079684,17.9604 12.6713368,17.6970316 12.6713368,17.3720842 L12.6713368,14.4229263 C12.6713368,12.9128211 13.4917579,12.4713474 14.2250211,13.0018737 C14.7583895,13.3865053 15.3779684,13.7266105 15.8980737,13.7266105 C17.1268105,13.7266105 18.0002842,12.7801895 18.0002842,11.6253474 C18.0002842,10.4695579 17.1268105,9.52313684 15.8980737,9.52313684" id="Fill-1" stroke="none" fill-rule="evenodd"></path>
</svg>
