<?xml version="1.0" encoding="utf-8"?>
<svg width="50px" height="50px" viewBox="0 0 50 50">
<path d="M5.15,13.53c0,0.47-0.29,0.82-0.78,0.82c-0.41,0-0.72-0.35-0.72-0.82c0-0.45,0.33-0.82,0.76-0.82
	C4.87,12.7,5.15,13.07,5.15,13.53z M4.02,38.31h0.77V19.35H4.02V38.31z"/>
<path d="M30.4,24.8c0,9.56-5.26,13.9-11.01,13.9C13.51,38.7,8.75,34,8.75,25.2c0-9.04,4.93-13.9,11.05-13.9
	C25.81,11.3,30.4,16.07,30.4,24.8 M9.53,25c0,7.25,3.48,12.87,9.9,12.87c6.46,0,10.16-5.8,10.16-12.96c0-6.64-2.97-12.69-9.74-12.69
	C13.07,12.23,9.53,17.93,9.53,25"/>
<path d="M33.23,36.25c1.29,0.87,3.52,1.71,5.44,1.71c3.64,0,6.88-2.57,6.88-6.35
	c0-3.51-2.16-5.34-5.82-6.91c-3.28-1.41-6.22-2.94-6.22-6.69c0-3.91,3.05-6.67,7.2-6.67c2.23,0,3.91,0.63,4.7,1.18l-0.31,0.68
	c-0.67-0.47-2.46-1.08-4.42-1.08c-4.38,0-6.29,3.34-6.29,5.8c0,3.4,2.61,4.54,5.98,6.15c3.91,1.93,5.99,3.64,5.99,7.35
	c0,3.99-2.82,7.23-7.83,7.23c-2.07,0-4.46-0.71-5.64-1.62L33.23,36.25z"/>
</svg>
