<svg width="14px" height="16px" viewBox="0 0 14 16">
<path d="M12.76,5.86h-0.69V5.22c0-2.71-2.27-4.92-5.07-4.92c-2.8,0-5.07,2.21-5.07,4.92v0.64H1.24
	c-0.41,0-0.75,0.34-0.75,0.75v8.33c0,0.41,0.34,0.75,0.75,0.75h11.52c0.41,0,0.75-0.34,0.75-0.75V6.61
	C13.51,6.2,13.18,5.86,12.76,5.86z M3.43,5.22c0-1.88,1.6-3.42,3.57-3.42c1.97,0,3.57,1.53,3.57,3.42v0.64H3.43V5.22z M12.01,14.19
	H1.99V7.36h10.02V14.19z"/>
<path d="M7,8.64c-0.81,0-1.47,0.65-1.47,1.44c0,0.53,0.29,0.98,0.72,1.24v0.85
	c0,0.41,0.34,0.75,0.75,0.75s0.75-0.34,0.75-0.75v-0.85c0.43-0.25,0.72-0.71,0.72-1.24C8.47,9.29,7.81,8.64,7,8.64z"/>
</svg>
