<svg width="21px" height="20px" viewBox="0 0 21 20">
    <path d="M3.73,7.65L3.73,7.65c-0.2,0-0.39-0.08-0.53-0.22L1.12,5.34c-0.29-0.29-0.29-0.77,0-1.06
	s0.77-0.29,1.06,0l1.55,1.55l4.68-4.68c0.29-0.29,0.77-0.29,1.06,0s0.29,0.77,0,1.06L4.26,7.43C4.12,7.57,3.93,7.65,3.73,7.65z"/>
    <path d="M19.35,5.75h-8.33c-0.41,0-0.75-0.34-0.75-0.75s0.34-0.75,0.75-0.75h8.33
	c0.41,0,0.75,0.34,0.75,0.75S19.77,5.75,19.35,5.75z"/>
    <path d="M19.35,15.75h-8.33c-0.41,0-0.75-0.34-0.75-0.75s0.34-0.75,0.75-0.75h8.33
	c0.41,0,0.75,0.34,0.75,0.75S19.77,15.75,19.35,15.75z"/>
    <path d="M3.73,17.65L3.73,17.65c-0.2,0-0.39-0.08-0.53-0.22l-2.08-2.08c-0.29-0.29-0.29-0.77,0-1.06
	s0.77-0.29,1.06,0l1.55,1.55l4.68-4.68c0.29-0.29,0.77-0.29,1.06,0s0.29,0.77,0,1.06l-5.21,5.21C4.12,17.57,3.93,17.65,3.73,17.65z"
    />
</svg>
