<svg width="21px" height="20px" viewBox="0 0 21 20">
    <path d="M3.73,7.65L3.73,7.65c-0.2,0-0.39-0.08-0.53-0.22L1.12,5.34c-0.29-0.29-0.29-0.77,0-1.06
	s0.77-0.29,1.06,0l1.55,1.55l4.68-4.68c0.29-0.29,0.77-0.29,1.06,0s0.29,0.77,0,1.06L4.26,7.43C4.12,7.57,3.93,7.65,3.73,7.65z"/>
    <path d="M19.35,5.75h-8.33c-0.41,0-0.75-0.34-0.75-0.75s0.34-0.75,0.75-0.75h8.33
	c0.41,0,0.75,0.34,0.75,0.75S19.77,5.75,19.35,5.75z"/>
    <path d="M19.35,15.75h-8.33c-0.41,0-0.75-0.34-0.75-0.75s0.34-0.75,0.75-0.75h8.33
	c0.41,0,0.75,0.34,0.75,0.75S19.77,15.75,19.35,15.75z"/>
    <path d="M8.41,11.59c-0.29-0.29-0.77-0.29-1.06,0L5,13.94l-2.34-2.34c-0.29-0.29-0.77-0.29-1.06,0
		s-0.29,0.77,0,1.06L3.94,15L1.6,17.34c-0.29,0.29-0.29,0.77,0,1.06c0.15,0.15,0.34,0.22,0.53,0.22s0.38-0.07,0.53-0.22L5,16.06
		l2.34,2.34c0.15,0.15,0.34,0.22,0.53,0.22c0.19,0,0.38-0.07,0.53-0.22c0.29-0.29,0.29-0.77,0-1.06L6.06,15l2.34-2.34
		C8.7,12.36,8.7,11.89,8.41,11.59z"/>
</svg>
