<?xml version="1.0" encoding="utf-8"?>
<!-- Generator: Adobe Illustrator 19.0.0, SVG Export Plug-In . SVG Version: 6.00 Build 0)  -->
<svg version="1.1" id="Ebene_1" xmlns="http://www.w3.org/2000/svg" xmlns:xlink="http://www.w3.org/1999/xlink" x="0px" y="0px"
	 width="50px" height="50px" viewBox="0 0 50 50" style="enable-background:new 0 0 50 50;" xml:space="preserve">
<style type="text/css">
	.st0{fill-rule:evenodd;clip-rule:evenodd;}
</style>
<path id="XMLID_7_" class="st0" d="M16.74,20.93c1.19,1.19,2.6,2.09,4.18,2.68l0,6.36l-1.97,1.97l1.97,1.97l0,0.45l-1.97,1.97
	l1.97,1.97l0,0.45l-1.97,1.97l1.97,1.97v2.2L25,49l4.08-4.08l0-21.31c1.58-0.58,2.98-1.48,4.17-2.68c4.55-4.55,4.55-11.96,0-16.51
	c-4.55-4.55-11.96-4.55-16.51,0C12.19,8.97,12.19,16.38,16.74,20.93z M22.8,10.47c-1.21-1.21-1.21-3.19,0-4.4
	c1.22-1.22,3.19-1.21,4.4,0c1.21,1.21,1.22,3.19,0,4.4C25.99,11.68,24.01,11.68,22.8,10.47z"/>
</svg>
