<?xml version="1.0" encoding="utf-8"?>
<svg width="50px" height="50px" viewBox="0 0 50 50">
<ellipse cx="25" cy="25" rx="3.71" ry="3.9"/>
<path d="M43.65,21.07c-1.28-1.13-3.1-2.13-5.26-2.91c-0.43-0.16-0.88-0.3-1.35-0.44
	c0.08-0.32,0.15-0.65,0.21-0.96c1.03-5.26,0.3-9.36-1.91-10.7c-1.09-0.66-2.56-0.66-4.27,0c-1.57,0.61-3.31,1.76-5.03,3.33
	c-0.35,0.32-0.69,0.65-1.04,1c-0.23-0.23-0.46-0.46-0.68-0.68c-3.82-3.56-7.57-4.95-9.78-3.6c-1.08,0.66-1.82,2-2.13,3.89
	c-0.28,1.73-0.2,3.89,0.23,6.23c0.09,0.47,0.19,0.96,0.31,1.45c-0.53,0.16-1.05,0.33-1.54,0.51c-4.52,1.65-7.21,4.18-7.21,6.76
	c0,1.35,0.75,2.73,2.17,4.01c1.34,1.2,3.22,2.26,5.43,3.05c0.36,0.13,0.74,0.25,1.12,0.36c-0.13,0.53-0.23,1.05-0.33,1.56
	c-0.89,4.94-0.16,8.65,1.97,9.94c0.56,0.34,1.23,0.51,1.98,0.51c0.73,0,1.54-0.16,2.41-0.48c1.66-0.62,3.47-1.8,5.23-3.41
	c0.29-0.26,0.58-0.55,0.86-0.84c0.38,0.38,0.75,0.74,1.13,1.08c2.66,2.4,5.22,3.68,7.23,3.68c0.73,0,1.39-0.17,1.95-0.51
	c1.11-0.67,1.88-2.05,2.22-3.98c0.32-1.82,0.25-4.05-0.2-6.47c-0.07-0.38-0.16-0.78-0.26-1.17c0.26-0.08,0.53-0.16,0.78-0.25
	c4.85-1.69,7.87-4.4,7.87-7.08C45.79,23.64,45.05,22.3,43.65,21.07z M31.69,7.82c1.18-0.46,2.17-0.51,2.77-0.14
	c0.64,0.39,1.12,1.37,1.34,2.77c0.26,1.62,0.16,3.67-0.28,5.94c-0.06,0.28-0.13,0.58-0.2,0.87c-1.73-0.42-3.6-0.72-5.56-0.92
	c-1.15-1.71-2.33-3.27-3.51-4.61c0.32-0.32,0.64-0.63,0.96-0.93C28.78,9.38,30.32,8.35,31.69,7.82z M30.8,28.51
	c-0.65,1.19-1.32,2.31-1.99,3.37c-1.24,0.09-2.51,0.15-3.81,0.15c-1.3,0-2.55-0.04-3.76-0.12c-0.71-1.09-1.4-2.22-2.04-3.39v0
	c-0.64-1.17-1.23-2.34-1.77-3.52c0.54-1.18,1.13-2.36,1.76-3.52c0.64-1.17,1.32-2.29,2.02-3.37c1.24-0.1,2.51-0.15,3.79-0.15
	c1.29,0,2.55,0.05,3.79,0.15c0.69,1.07,1.36,2.19,2.01,3.36c0.66,1.19,1.25,2.36,1.79,3.5C32.05,26.14,31.45,27.33,30.8,28.51z
	 M33.54,27.13c0.56,1.33,1.03,2.62,1.4,3.84c-1.2,0.29-2.51,0.52-3.88,0.69c0.43-0.72,0.86-1.45,1.28-2.21
	C32.77,28.67,33.16,27.9,33.54,27.13z M25.07,36.99c-0.84-0.95-1.68-2.01-2.5-3.14c0.79,0.03,1.6,0.05,2.42,0.05
	c0.85,0,1.68-0.03,2.51-0.07C26.7,34.99,25.89,36.05,25.07,36.99z M18.98,31.7c-1.36-0.16-2.65-0.37-3.83-0.64
	c0.37-1.25,0.83-2.54,1.35-3.85c0.37,0.75,0.76,1.51,1.17,2.25v0C18.09,30.22,18.53,30.97,18.98,31.7z M16.49,22.81
	c-0.51-1.28-0.96-2.55-1.32-3.77c1.19-0.28,2.45-0.5,3.77-0.68c-0.44,0.71-0.86,1.44-1.28,2.19h0
	C17.25,21.3,16.86,22.06,16.49,22.81z M25.02,13.06c0.82,0.93,1.64,1.98,2.44,3.11c-0.81-0.04-1.63-0.07-2.46-0.07
	c-0.82,0-1.64,0.03-2.44,0.07C23.36,15.05,24.19,14.01,25.02,13.06z M32.33,20.54c-0.41-0.75-0.84-1.47-1.27-2.18
	c1.32,0.18,2.6,0.4,3.79,0.69c-0.36,1.2-0.81,2.46-1.33,3.76C33.15,22.06,32.76,21.31,32.33,20.54z M14.4,15.89
	c-0.4-2.13-0.47-4.05-0.23-5.56c0.21-1.3,0.67-2.22,1.27-2.59c0.64-0.39,1.69-0.33,2.95,0.16c1.47,0.57,3.11,1.69,4.76,3.22
	c0.21,0.19,0.41,0.4,0.62,0.61c-1.21,1.36-2.4,2.92-3.53,4.6c-1.96,0.19-3.83,0.49-5.55,0.9C14.58,16.78,14.48,16.33,14.4,15.89z
	 M12.39,30.26c-2-0.72-3.68-1.66-4.85-2.71c-1-0.9-1.55-1.82-1.55-2.6c0-1.93,3.02-3.9,6.02-5c0.46-0.17,0.94-0.32,1.43-0.47
	c0.52,1.78,1.21,3.64,2.03,5.51c-0.83,1.9-1.53,3.79-2.06,5.59C13.06,30.49,12.72,30.38,12.39,30.26z M23.04,39.1
	c-3.5,3.21-6.38,3.9-7.57,3.18c-1.59-0.96-1.71-4.7-1.11-7.97c0.09-0.47,0.19-0.95,0.3-1.45c1.69,0.39,3.58,0.67,5.61,0.85
	c1.15,1.7,2.35,3.26,3.56,4.63C23.57,38.6,23.3,38.86,23.04,39.1z M35.66,33.83c0.9,4.79,0.03,7.75-1.16,8.47
	c-1.59,0.97-4.73-0.8-7.14-2.97c-0.35-0.31-0.69-0.65-1.05-1c1.17-1.34,2.33-2.91,3.48-4.65c2.01-0.19,3.91-0.49,5.63-0.91
	C35.51,33.12,35.59,33.48,35.66,33.83z M37.36,30.27c-0.22,0.08-0.47,0.15-0.7,0.22c-0.52-1.74-1.24-3.59-2.11-5.53
	c0.83-1.88,1.52-3.72,2.03-5.45c0.43,0.13,0.84,0.26,1.24,0.41c1.95,0.71,3.57,1.6,4.7,2.58c0.97,0.85,1.5,1.72,1.5,2.45
	C44.02,26.4,41.93,28.68,37.36,30.27z"/>
</svg>
