<?xml version="1.0" encoding="utf-8"?>
<svg width="50px" height="50px" viewBox="0 0 50 50">
<path d="M44.77,29.87c-2.1,0-3.85,1.34-4.4,3.16H19.04c-2.01,0-3.64-1.54-3.64-3.44
	c0-1.9,1.63-3.44,3.64-3.44h11.64c3.4,0,6.16-2.62,6.16-5.83c0-3.21-2.76-5.83-6.16-5.83H9.6c-0.58-1.77-2.31-3.06-4.37-3.06
	c-2.54,0-4.6,1.95-4.6,4.35c0,2.4,2.06,4.35,4.6,4.35c2.14,0,3.92-1.39,4.43-3.26h21.01c2.01,0,3.64,1.54,3.64,3.44
	c0,1.9-1.63,3.44-3.64,3.44H19.04c-3.4,0-6.16,2.62-6.16,5.83s2.76,5.83,6.16,5.83h21.33c0.55,1.82,2.3,3.16,4.4,3.16
	c2.54,0,4.6-1.95,4.6-4.35S47.31,29.87,44.77,29.87z"/>
</svg>
