<svg width="18px" height="18px" viewBox="0 0 18 18">
<path d="M13.7,3.93c-1.36-1.26-3.14-1.92-4.98-1.85C5.79,2.19,3.32,4.11,2.41,6.9L1.99,5.67
	C1.86,5.28,1.43,5.07,1.04,5.2c-0.39,0.13-0.6,0.56-0.47,0.95L1.7,9.48C1.78,9.7,1.95,9.88,2.17,9.95c0.08,0.03,0.16,0.04,0.24,0.04
	c0.15,0,0.29-0.04,0.42-0.13l2.88-1.92c0.34-0.23,0.44-0.7,0.21-1.04C5.69,6.56,5.22,6.47,4.88,6.7L3.82,7.4
	c0.71-2.24,2.62-3.74,4.96-3.82c1.45-0.05,2.84,0.46,3.91,1.45c1.06,0.99,1.68,2.33,1.73,3.77c0.05,1.45-0.46,2.83-1.45,3.89
	c-0.99,1.06-2.34,1.68-3.79,1.73c-0.41,0.01-0.74,0.36-0.72,0.78c0.01,0.4,0.35,0.72,0.75,0.72c0.01,0,0.02,0,0.03,0
	c1.85-0.07,3.57-0.85,4.83-2.21c1.26-1.36,1.92-3.12,1.85-4.97C15.85,6.9,15.06,5.19,13.7,3.93z"/>
</svg>
