<svg width="52px" height="11px" viewBox="0 0 52 11">
<style type="text/css">
	.o40{opacity:0.4;}
</style>
<path class="o40 rp-step-1" d="M0.62,2c0-0.55,0.45-1,1-1h6.55c0.55,0,1,0.45,1,1v7c0,0.55-0.45,1-1,1H1.61
	c-0.55,0-1-0.45-1-1V2z"/>
<path class="o40 rp-step-2" d="M21.73,2c0-0.55,0.45-1,1-1h6.55c0.55,0,1,0.45,1,1v7c0,0.55-0.45,1-1,1h-6.55
	c-0.55,0-1-0.45-1-1V2z"/>
<path class="o40 rp-step-3" d="M42.83,2c0-0.55,0.45-1,1-1h6.55c0.55,0,1,0.45,1,1v7c0,0.55-0.45,1-1,1h-6.55
	c-0.55,0-1-0.45-1-1V2z"/>
<path d="M19.49,4.95l-2.33-2.18c-0.3-0.28-0.78-0.27-1.06,0.03c-0.28,0.3-0.27,0.78,0.03,1.06l0.94,0.88h-5.16
	c-0.41,0-0.75,0.34-0.75,0.75s0.34,0.75,0.75,0.75h5.16l-0.94,0.88c-0.3,0.28-0.32,0.76-0.03,1.06c0.15,0.16,0.35,0.24,0.55,0.24
	c0.18,0,0.37-0.07,0.51-0.2l2.33-2.18c0.15-0.14,0.24-0.34,0.24-0.55S19.64,5.09,19.49,4.95z"/>
<path d="M40.6,4.95l-2.33-2.18c-0.3-0.28-0.78-0.27-1.06,0.03c-0.28,0.3-0.27,0.78,0.03,1.06l0.94,0.88h-5.16
	c-0.41,0-0.75,0.34-0.75,0.75s0.34,0.75,0.75,0.75h5.16l-0.94,0.88c-0.3,0.28-0.32,0.76-0.03,1.06c0.15,0.16,0.35,0.24,0.55,0.24
	c0.18,0,0.37-0.07,0.51-0.2l2.33-2.18c0.15-0.14,0.24-0.34,0.24-0.55S40.75,5.09,40.6,4.95z"/>
</svg>
