<svg width="34px" height="19px" viewBox="0 0 34 19">
<style type="text/css">
	.o40{opacity:0.4;}
</style>
<path d="M21.24,11.89c-0.3-0.28-0.78-0.27-1.06,0.03c-0.28,0.3-0.27,0.78,0.03,1.06l0.94,0.88h-1.79
	c-1.4,0-1.97-0.83-2.77-2.19c-0.44-0.74-0.96-1.58-1.74-2.17c0.78-0.59,1.3-1.43,1.74-2.17c0.81-1.36,1.37-2.19,2.77-2.19h1.79
	l-0.94,0.88c-0.3,0.28-0.32,0.76-0.03,1.06c0.15,0.16,0.35,0.24,0.55,0.24c0.18,0,0.37-0.07,0.51-0.2l2.33-2.18
	c0.15-0.14,0.24-0.34,0.24-0.55s-0.09-0.41-0.24-0.55l-2.33-2.18c-0.3-0.28-0.78-0.27-1.06,0.03c-0.28,0.3-0.27,0.78,0.03,1.06
	l0.95,0.88h-1.79c-2.33,0-3.29,1.62-4.06,2.92c-0.81,1.36-1.37,2.19-2.77,2.19h-1.6c-0.41,0-0.75,0.34-0.75,0.75
	s0.34,0.75,0.75,0.75h1.6c1.4,0,1.97,0.83,2.77,2.19c0.77,1.3,1.74,2.92,4.06,2.92h1.79l-0.94,0.88c-0.3,0.28-0.32,0.76-0.03,1.06
	c0.15,0.16,0.35,0.24,0.55,0.24c0.18,0,0.37-0.07,0.51-0.2l2.33-2.18c0.15-0.14,0.24-0.34,0.24-0.55s-0.09-0.41-0.24-0.55
	L21.24,11.89z"/>
<path class="o40" d="M0.89,6.9c0-0.55,0.46-1,1-1h5.3c0.55,0,1,0.45,1,1v5.2c0,0.55-0.46,1-1,1h-5.3
	c-0.55,0-1-0.45-1-1V6.9z"/>
<path class="o40" d="M25.81,12.02c0-0.55,0.46-1,1-1h5.3c0.55,0,1,0.45,1,1v5.2c0,0.55-0.46,1-1,1h-5.3
	c-0.55,0-1-0.45-1-1V12.02z"/>
<path class="o40" d="M25.81,1.79c0-0.55,0.46-1,1-1h5.3c0.55,0,1,0.45,1,1v5.2c0,0.55-0.46,1-1,1h-5.3
	c-0.55,0-1-0.45-1-1V1.79z"/>
</svg>
