<?xml version="1.0" encoding="utf-8"?>
<svg width="50px" height="50px" viewBox="0 0 50 50">
	<path d="M48,21h-5.71c-0.4-1.58-0.91-3.33-1.56-4.66l4.06-4.06c0.19-0.19,0.29-0.44,0.29-0.71
		c0-0.27-0.11-0.52-0.29-0.71L39.14,5.2c-0.39-0.39-1.02-0.39-1.41,0l-4.06,4.06C32.33,8.62,30.58,8.11,29,7.71V2c0-0.55-0.45-1-1-1
		h-6c-0.55,0-1,0.45-1,1v5.71c-1.58,0.4-3.33,0.91-4.66,1.55L12.27,5.2c-0.39-0.39-1.02-0.39-1.41,0L5.2,10.86
		c-0.39,0.39-0.39,1.02,0,1.41l4.07,4.07C8.62,17.66,8.11,19.42,7.71,21H2c-0.55,0-1,0.45-1,1v6c0,0.55,0.45,1,1,1h5.71
		c0.4,1.58,0.91,3.34,1.56,4.66L5.2,37.73c-0.19,0.19-0.29,0.44-0.29,0.71s0.11,0.52,0.29,0.71l5.66,5.66c0.38,0.38,1.04,0.38,1.41,0
		l4.07-4.06c1.32,0.65,3.08,1.15,4.66,1.56V48c0,0.55,0.45,1,1,1h6c0.55,0,1-0.45,1-1v-5.71c1.58-0.4,3.34-0.91,4.66-1.56l4.07,4.06
		c0.39,0.39,1.02,0.39,1.41,0l5.66-5.66c0.39-0.39,0.39-1.02,0-1.41l-4.06-4.07c0.65-1.33,1.16-3.08,1.56-4.66H48c0.55,0,1-0.45,1-1
		v-6C49,21.45,48.55,21,48,21 M25,33c-4.41,0-8-3.59-8-8s3.59-8,8-8s8,3.59,8,8S29.41,33,25,33"/>
</svg>
