<?xml version="1.0" encoding="utf-8"?>
<svg width="20px" height="20px" viewBox="0 0 20 20">
<path class="light" d="M3.5,5.66C3.5,4.74,4.03,4,4.68,4h10.65c0.65,0,1.18,0.74,1.18,1.66v1.67
	C16.5,8.26,15.97,9,15.32,9H4.68C4.03,9,3.5,8.26,3.5,7.34V5.66z"/>
<path class="light" d="M3.5,12.66C3.5,11.74,4.03,11,4.68,11h10.65c0.65,0,1.18,0.74,1.18,1.66v1.67
	c0,0.92-0.53,1.66-1.18,1.66H4.68c-0.65,0-1.18-0.74-1.18-1.66V12.66z"/>
<path class="dark" d="M4.95,19.25H3c-1.52,0-2.75-1.43-2.75-3.19V3.94c0-1.76,1.23-3.19,2.75-3.19h1.95v1.5H3
	c-0.69,0-1.25,0.76-1.25,1.69v12.13c0,0.91,0.57,1.69,1.25,1.69h1.95V19.25z"/>
<path class="dark" d="M17,19.25h-2.05v-1.5H17c0.69,0,1.25-0.76,1.25-1.69V3.94c0-0.91-0.57-1.69-1.25-1.69h-2.05v-1.5
	H17c1.52,0,2.75,1.43,2.75,3.19v12.13C19.75,17.82,18.52,19.25,17,19.25z"/>
</svg>
