<?xml version="1.0" encoding="utf-8"?>
<svg width="50px" height="50px" viewBox="0 0 50 50">
	<path id="XMLID_3_" d="M42.16,36.37l-10.46-3.73v-5.15c3.2-2.63,5.31-7,5.31-11.95c0-0.16-0.02-0.32-0.02-0.48
		c-0.7,0.25-1.47,0.48-2.22,0.48c-3.7,0-6.26-0.59-8.41-3.47c-1.91,2.01-5.28,3.47-8.36,3.47c-1.45,0-3.85-0.93-5.5-1.67
		c-0.05,0.55-0.09,1.11-0.09,1.67c0,5.23,2.35,9.8,5.87,12.36v4.73L7.83,36.37c-3.11,1.11-5.19,4.07-5.19,7.37V49h44.72v-5.26
		C47.36,40.44,45.27,37.48,42.16,36.37z"/>
	<path id="XMLID_2_" d="M25.44,9.58l0.95-1.81l1.02,1.78c1.84,3.21,3.76,3.75,7.38,3.75c0.58,0,1.37-0.29,2-0.55
		C35.68,6.06,30.69,1,24.72,1C19.1,1,14.36,5.48,12.9,11.58c1.72,0.81,4.11,1.72,5.12,1.72C20.94,13.3,24.41,11.56,25.44,9.58z"/>
</svg>
