<?xml version="1.0" encoding="utf-8"?>
<svg width="50px" height="42px" viewBox="-970.26 970.81 50 42">
<path d="M-966.47,971.81h42.42c1.67,0,3.03,1.35,3.03,3v26c0,1.65-1.36,3-3.03,3h-3.03v7c0,0.4-0.25,0.77-0.62,0.92
	c-0.13,0.05-0.26,0.08-0.39,0.08c-0.26,0-0.52-0.1-0.72-0.29l-7.78-7.71h-29.88c-1.67,0-3.03-1.35-3.03-3v-26
	C-969.5,973.16-968.14,971.81-966.47,971.81 M-938.19,989.81c1.11,0,2.02-0.9,2.02-2s-0.91-2-2.02-2c-1.11,0-2.02,0.9-2.02,2
	S-939.3,989.81-938.19,989.81 M-946.27,989.81c1.11,0,2.02-0.9,2.02-2s-0.91-2-2.02-2c-1.11,0-2.02,0.9-2.02,2
	S-947.38,989.81-946.27,989.81 M-954.35,989.81c1.11,0,2.02-0.9,2.02-2s-0.91-2-2.02-2c-1.11,0-2.02,0.9-2.02,2
	S-955.46,989.81-954.35,989.81"/>
</svg>
