<?xml version="1.0" encoding="utf-8"?>
<svg width="49px" height="49px" viewBox="-969.76 967.31 49 49">
<rect x="-948.44" y="988.5" transform="matrix(-0.3176 -0.9482 0.9482 -0.3176 -2185.9346 410.4994)" width="6.37" height="6.62"/>
<path d="M-923.72,985.35c-4.85-16.15-11.84-19.92-27.99-15.07c-16.15,4.85-19.92,11.84-15.07,27.99
	c4.85,16.15,11.84,19.92,27.99,15.07C-922.65,1008.5-918.88,1001.5-923.72,985.35z M-931.89,995.84l-3.05,1.02l1.06,3.15
	c0.43,1.28-0.26,2.66-1.54,3.08c-0.28,0.09-0.56,0.13-0.84,0.13c-0.99-0.03-1.91-0.66-2.25-1.66l-1.06-3.15l-6.28,2.1l1.06,3.15
	c0.43,1.28-0.26,2.66-1.54,3.08c-0.28,0.09-0.56,0.13-0.84,0.13c-0.99-0.03-1.91-0.66-2.25-1.66l-1.06-3.15l-3.05,1.02
	c-0.28,0.09-0.56,0.13-0.84,0.13c-0.99-0.03-1.91-0.66-2.25-1.66c-0.43-1.28,0.26-2.66,1.54-3.08l3.05-1.02l-2.02-6.04l-3.05,1.02
	c-0.28,0.09-0.56,0.13-0.84,0.13c-0.99-0.03-1.91-0.66-2.25-1.66c-0.43-1.28,0.26-2.66,1.54-3.08l3.04-1.02l-1.06-3.15
	c-0.43-1.28,0.26-2.66,1.54-3.08c1.28-0.43,2.66,0.26,3.08,1.54l1.06,3.15l6.28-2.1l-1.06-3.15c-0.43-1.28,0.26-2.66,1.54-3.08
	c1.28-0.43,2.66,0.26,3.08,1.54l1.06,3.15l3.05-1.02c1.28-0.43,2.66,0.26,3.08,1.54c0.43,1.28-0.26,2.66-1.54,3.08l-3.05,1.02
	l2.02,6.04l3.05-1.02c1.28-0.43,2.66,0.26,3.08,1.54C-929.93,994.03-930.62,995.41-931.89,995.84z"/>
</svg>
