<?xml version="1.0" encoding="utf-8"?>
<svg width="54px" height="36px" viewBox="-972 973.81 54 36">
<path d="M-923.36,974.5h-43.28c-2.39,0-4.33,1.94-4.33,4.33v25.97c0,2.38,1.94,4.33,4.33,4.33h43.28
	c2.39,0,4.33-1.94,4.33-4.33v-25.97C-919.03,976.44-920.97,974.5-923.36,974.5 M-955.28,997.08l-7.57,4.33
	c-0.17,0.09-0.35,0.14-0.54,0.14c-0.37,0-0.74-0.19-0.94-0.55c-0.3-0.52-0.12-1.18,0.4-1.48l7.57-4.33c0.52-0.29,1.18-0.12,1.48,0.4
	C-954.58,996.12-954.76,996.78-955.28,997.08 M-945,997.22c-0.2,0-0.41-0.06-0.59-0.17l-18.39-11.9c-0.5-0.32-0.64-1-0.32-1.5
	c0.32-0.5,1-0.64,1.5-0.32l17.81,11.52l17.81-11.52c0.5-0.32,1.17-0.18,1.5,0.32c0.32,0.5,0.18,1.17-0.32,1.5l-18.39,11.9
	C-944.59,997.17-944.79,997.22-945,997.22 M-925.67,1001.01c-0.2,0.35-0.56,0.55-0.94,0.55c-0.18,0-0.37-0.05-0.53-0.14l-7.57-4.33
	c-0.52-0.3-0.7-0.96-0.4-1.48c0.3-0.52,0.96-0.7,1.48-0.4l7.57,4.33C-925.55,999.83-925.37,1000.49-925.67,1001.01"/>
</svg>
