<svg width="14px" height="14px" viewBox="0 3 14 14" version="1.1" xmlns="http://www.w3.org/2000/svg" xmlns:xlink="http://www.w3.org/1999/xlink">
   <path d="M12.409,5.563 C12.364,5.636 12.307,5.698 12.277,5.784 C12.283,5.785 11.954,7.517 10.615,8.186 C10.507,8.24 10.385,8.253 10.271,8.225 C9.555,8.045 9.09,8.111 9.088,8.112 C9.083,8.191 9.225,8.592 9.301,8.806 C9.332,8.895 9.362,8.981 9.391,9.066 C9.472,9.041 9.565,9.005 9.605,8.986 C9.855,8.867 10.149,8.966 10.273,9.208 C10.768,10.184 10.861,11.042 10.553,11.759 C10.227,12.514 9.547,12.858 9.256,12.975 C8.795,13.446 8.546,13.794 8.345,14.077 C7.855,14.762 7.564,15.021 6.436,15.021 C5.709,15.021 5.087,13.472 5.087,13.108 C5.087,11.298 4.297,11.066 3.609,11.066 C2.684,11.066 2.262,10.22 2.262,9.435 C2.262,9.337 2.282,7.042 4.076,6.684 C4.939,6.512 5.52,6.592 5.85,6.922 C5.91,6.982 5.954,7.043 5.988,7.103 C6.271,7.094 6.542,6.937 6.612,6.733 C6.693,6.496 6.485,6.162 6.043,5.817 C5.819,5.644 5.717,5.395 5.761,5.133 C5.859,4.556 6.862,3.942 8.741,3.309 C8.757,3.3 8.788,3.277 8.822,3.249 C8.24,3.092 7.631,3 7,3 C3.141,3 0,6.14 0,10 C0,13.86 3.141,17 7,17 C10.859,17 14,13.86 14,10 C14,8.317 13.402,6.771 12.409,5.563 Z"></path>
</svg>