<svg width="39px" height="36px" viewBox="0 0 39 36">
<path d="M38.21,22.64l-3.33-3.33c-0.38-0.38-1.04-0.38-1.41,0l-10,10c-0.08,0.08-0.15,0.19-0.19,0.29
	c-0.01,0.03-0.02,0.05-0.03,0.08c-0.01,0.02-0.02,0.04-0.03,0.06l-1.33,4.67c-0.1,0.35,0,0.72,0.25,0.98
	c0.19,0.19,0.45,0.29,0.71,0.29c0.09,0,0.18-0.01,0.27-0.04l4.67-1.33c0.02-0.01,0.04-0.02,0.07-0.03c0.03-0.01,0.05-0.02,0.07-0.03
	c0.11-0.05,0.21-0.11,0.29-0.2l10-10c0.19-0.19,0.29-0.44,0.29-0.71S38.4,22.83,38.21,22.64z M27.5,31.93l-1.92-1.92l5.92-5.92
	l1.92,1.92L27.5,31.93z M24.66,31.92l0.93,0.93l-1.3,0.37L24.66,31.92z M34.83,24.6l-1.92-1.92l1.25-1.25l1.92,1.92L34.83,24.6z"/>
<path d="M19.5,19.02c-6.68,0-11.67-2.29-11.67-4.33v-1.95c2.36,1.8,6.6,2.95,11.67,2.95
	c5.07,0,9.31-1.16,11.67-2.95v2.62c0,0.55,0.45,1,1,1s1-0.45,1-1v-6c0-3.61-5.88-6.33-13.67-6.33c-7.79,0-13.67,2.72-13.67,6.33
	c0,0,0,0,0,0c0,0,0,0,0,0v17.33c0,3.34,5.17,5.99,12.29,6.3c0.02,0,0.03,0,0.04,0c0.53,0,0.97-0.42,1-0.96
	c0.02-0.55-0.4-1.02-0.96-1.04C12,30.71,7.83,28.54,7.83,26.68v-2.63c2.02,1.53,5.42,2.61,9.6,2.89c0.02,0,0.05,0,0.07,0
	c0.52,0,0.96-0.41,1-0.93c0.04-0.55-0.38-1.03-0.93-1.06c-6.01-0.4-9.73-2.53-9.73-4.27v-2.62c2.36,1.8,6.6,2.95,11.67,2.95
	c0.55,0,1-0.45,1-1S20.05,19.02,19.5,19.02z M19.5,5.02c6.68,0,11.67,2.29,11.67,4.33s-4.99,4.33-11.67,4.33S7.83,11.39,7.83,9.35
	S12.82,5.02,19.5,5.02z"/>
</svg>
